<mxfile host="app.diagrams.net" modified="2024-04-23T03:58:20.562Z" agent="Mozilla/5.0 (Windows NT 10.0; Win64; x64) AppleWebKit/537.36 (KHTML, like Gecko) Chrome/121.0.0.0 Safari/537.36 OPR/107.0.0.0" version="24.2.5" etag="hOqVahKSzrzUPlf99d_o" type="github">
  <diagram name="Page-1" id="t9NPcsy9T-_jR7DMKD8A">
    <mxGraphModel>
      <root>
        <mxCell id="0" />
        <mxCell id="1" parent="0" />
      </root>
    </mxGraphModel>
  </diagram>
</mxfile>
